<svg xmlns="http://www.w3.org/2000/svg" width="100" height="100" viewBox="0 0 100 100">
  <path id="js-square-brands" d="M89.286,32H10.714A10.717,10.717,0,0,0,0,42.714v78.571A10.717,10.717,0,0,0,10.714,132H89.286A10.717,10.717,0,0,0,100,121.286V42.714A10.717,10.717,0,0,0,89.286,32ZM54.42,109.991c0,9.732-5.714,14.174-14.04,14.174-7.522,0-11.875-3.884-14.107-8.594l7.656-4.621c1.473,2.612,2.813,4.821,6.049,4.821,3.08,0,5.045-1.205,5.045-5.915V77.915h9.4v32.076Zm22.232,14.174c-8.728,0-14.375-4.152-17.121-9.6l7.656-4.42c2.009,3.281,4.643,5.714,9.263,5.714,3.884,0,6.384-1.942,6.384-4.643,0-3.214-2.545-4.353-6.853-6.25l-2.344-1c-6.786-2.879-11.272-6.518-11.272-14.174,0-7.054,5.379-12.411,13.75-12.411,5.982,0,10.268,2.076,13.348,7.522l-7.321,4.687c-1.607-2.879-3.348-4.018-6.049-4.018-2.746,0-4.487,1.741-4.487,4.018,0,2.813,1.741,3.951,5.781,5.714l2.344,1c7.991,3.415,12.478,6.92,12.478,14.777,0,8.437-6.652,13.08-15.558,13.08Z" transform="translate(0 -32)" fill="#ffe850"/>
</svg>
