<svg id="Group_3"  xmlns="http://www.w3.org/2000/svg" width="100" height="87.505" viewBox="0 0 100 87.505">
  <path id="react-brands" d="M81.68,34.609q-1.582-.527-3.164-1c.176-.723.332-1.445.488-2.168,2.4-11.641.82-21-4.512-24.082-5.137-2.949-13.516.117-21.992,7.5-.84.723-1.66,1.484-2.441,2.246-.527-.508-1.074-1.016-1.621-1.5C39.551,7.715,30.645,4.395,25.312,7.5,20.2,10.469,18.672,19.277,20.82,30.293c.215,1.094.449,2.168.723,3.262-1.25.352-2.48.742-3.633,1.152C7.48,38.32,0,44.023,0,49.922,0,56.016,7.969,62.129,18.809,65.84c.879.293,1.758.586,2.656.84-.293,1.172-.547,2.324-.781,3.516-2.051,10.84-.449,19.434,4.668,22.383,5.273,3.047,14.141-.078,22.773-7.637.684-.605,1.367-1.23,2.051-1.895.859.84,1.758,1.641,2.656,2.422,8.359,7.188,16.621,10.1,21.719,7.148,5.273-3.047,6.992-12.285,4.766-23.535q-.264-1.289-.586-2.637c.625-.176,1.23-.371,1.836-.566C91.836,62.148,100,56.113,100,49.922c0-5.918-7.7-11.66-18.32-15.313ZM55.254,18.027C62.52,11.7,69.3,9.219,72.383,11c3.3,1.895,4.57,9.551,2.5,19.609-.137.664-.273,1.309-.449,1.953a99.985,99.985,0,0,0-13.145-2.07,98.68,98.68,0,0,0-8.32-10.371c.762-.723,1.5-1.406,2.285-2.09Zm-22.6,42.031c1,1.7,2.012,3.4,3.086,5.059a88.44,88.44,0,0,1-9.062-1.465,91.237,91.237,0,0,1,3.184-8.691c.9,1.719,1.816,3.418,2.793,5.1Zm-5.918-23.5c2.813-.625,5.8-1.133,8.906-1.523C34.609,36.66,33.594,38.32,32.637,40c-.957,1.66-1.895,3.359-2.773,5.078-1.23-2.91-2.266-5.762-3.125-8.516ZM32.09,50.02c1.289-2.7,2.7-5.332,4.18-7.93s3.086-5.117,4.766-7.6c2.93-.215,5.918-.332,8.965-.332s6.055.117,8.965.332q2.49,3.691,4.746,7.559t4.238,7.891q-1.963,4.043-4.219,7.969c-1.484,2.6-3.066,5.117-4.727,7.617-2.91.215-5.937.313-9,.313s-6.035-.1-8.906-.273q-2.549-3.721-4.8-7.617c-1.5-2.6-2.891-5.234-4.2-7.93Zm35.273,10c1-1.719,1.934-3.457,2.852-5.215a90.666,90.666,0,0,1,3.3,8.652,85.788,85.788,0,0,1-9.18,1.563c1.055-1.641,2.051-3.32,3.027-5Zm2.813-14.941c-.918-1.719-1.855-3.437-2.832-5.117q-1.436-2.49-2.988-4.922A89.879,89.879,0,0,1,73.32,36.6,86.437,86.437,0,0,1,70.176,45.078ZM50.039,23.105A85.767,85.767,0,0,1,55.82,30.1c-3.867-.176-7.754-.176-11.621,0C46.113,27.578,48.086,25.234,50.039,23.105ZM27.383,11.133c3.281-1.914,10.566.82,18.242,7.617.488.43.977.9,1.484,1.367A99.228,99.228,0,0,0,38.73,30.488,102.955,102.955,0,0,0,25.605,32.52c-.254-1-.469-2.012-.684-3.027-1.836-9.453-.625-16.582,2.461-18.359ZM22.6,62.617c-.82-.234-1.621-.488-2.422-.762a39.835,39.835,0,0,1-12.3-6.094A8.764,8.764,0,0,1,4.2,49.922c0-3.574,6.172-8.145,15.078-11.25,1.113-.391,2.246-.742,3.379-1.074A103.856,103.856,0,0,0,27.441,50.02,106.762,106.762,0,0,0,22.6,62.617ZM45.371,81.758a35.748,35.748,0,0,1-11.016,6.895,8.645,8.645,0,0,1-6.895.254c-3.105-1.8-4.395-8.691-2.637-17.969.215-1.094.449-2.188.723-3.262A97.709,97.709,0,0,0,38.809,69.59a103.071,103.071,0,0,0,8.438,10.43c-.625.605-1.25,1.191-1.875,1.738Zm4.785-4.746c-1.992-2.148-3.984-4.531-5.918-7.09,1.875.078,3.809.117,5.762.117,2.012,0,3.984-.039,5.938-.137A84.229,84.229,0,0,1,50.156,77.012Zm25.527,5.859a8.68,8.68,0,0,1-3.223,6.113c-3.105,1.8-9.727-.547-16.875-6.68-.82-.7-1.641-1.465-2.48-2.246A96.619,96.619,0,0,0,61.348,69.59a96.281,96.281,0,0,0,13.32-2.051c.2.8.371,1.6.527,2.383A35.6,35.6,0,0,1,75.684,82.871Zm3.555-21c-.547.176-1.094.352-1.66.508A99.219,99.219,0,0,0,72.6,49.922a98.722,98.722,0,0,0,4.785-12.285c1.016.293,1.992.605,2.93.918C89.414,41.68,95.8,46.328,95.8,49.883,95.8,53.711,88.984,58.652,79.238,61.875ZM50,58.945A8.945,8.945,0,1,0,41.055,50,8.944,8.944,0,0,0,50,58.945Z" transform="translate(0 -6.252)" fill="#61dbfb"/>
</svg>
