<svg id="redux-seeklogo.com" xmlns="http://www.w3.org/2000/svg" width="100" height="94.935" viewBox="0 0 100 94.935">
  <path id="Path_1"  d="M69.289,66.3a7.148,7.148,0,0,0-.764-14.253h-.254A7.12,7.12,0,0,0,61.4,59.43a7.31,7.31,0,0,0,2.036,4.709c-4.327,8.527-10.944,14.762-20.87,19.98a34.413,34.413,0,0,1-20.742,3.945c-5.726-.764-10.18-3.309-12.98-7.509A18.693,18.693,0,0,1,7.826,60.83a29.955,29.955,0,0,1,8.653-10.181c-.509-1.654-1.273-4.454-1.654-6.49C-3.627,57.521-1.718,75.592,3.881,84.118c4.2,6.363,12.725,10.308,22.142,10.308a31.281,31.281,0,0,0,7.635-.891C49.947,90.354,62.291,80.682,69.289,66.3Zm22.4-15.78C82.015,39.2,67.762,32.96,51.474,32.96H49.438A6.993,6.993,0,0,0,43.2,29.142h-.255A7.129,7.129,0,0,0,43.2,43.4h.254a7.169,7.169,0,0,0,6.236-4.327h2.291A48.5,48.5,0,0,1,79.088,47.34,34.089,34.089,0,0,1,92.577,63.629c2.163,5.345,2.036,10.562-.255,15.017-3.563,6.745-9.544,10.435-17.434,10.435a32.547,32.547,0,0,1-12.471-2.673c-1.4,1.273-3.945,3.309-5.726,4.582a39.284,39.284,0,0,0,16.416,3.945c12.216,0,21.252-6.745,24.687-13.489C101.485,74.064,101.23,61.339,91.686,50.522ZM27.041,68.465a7.148,7.148,0,0,0,7.126,6.872h.255a7.129,7.129,0,0,0-.255-14.253h-.254a2.17,2.17,0,0,0-.891.127A46.63,46.63,0,0,1,26.4,32.96a34.139,34.139,0,0,1,7.508-19.725c3.69-4.709,10.817-7,15.652-7.126C63.054,5.854,68.78,22.652,69.162,29.4c1.654.382,4.454,1.273,6.363,1.909C74,10.69,61.272,0,49.056,0,37.6,0,27.041,8.272,22.842,20.489c-5.854,16.289-2.036,31.942,5.09,44.286A5.717,5.717,0,0,0,27.041,68.465Z" transform="translate(0 0)" fill="#764abc"/>
</svg>
