<svg xmlns="http://www.w3.org/2000/svg" width="100" height="100" viewBox="0 0 100 100">
  <path id="typescriptlang-icon" d="M0,50v50H100V0H0Zm80.587-3.984a12.454,12.454,0,0,1,6.254,3.6,16.429,16.429,0,0,1,2.4,3.206c.031.125-4.317,3.047-6.953,4.683-.094.063-.477-.348-.906-.984a5.661,5.661,0,0,0-4.7-2.825c-3.031-.206-5,1.381-4.969,4.031A3.666,3.666,0,0,0,72.14,59.6c.667,1.381,1.906,2.206,5.794,3.891,7.159,3.078,10.222,5.109,12.125,8a14.52,14.52,0,0,1,1.159,12.19c-1.587,4.159-5.523,6.984-11.062,7.922a30.68,30.68,0,0,1-7.619-.078,18.378,18.378,0,0,1-10.175-5.3,17.579,17.579,0,0,1-2.6-3.859,7.592,7.592,0,0,1,.922-.587l3.714-2.141,2.875-1.667.6.891A13.415,13.415,0,0,0,71.667,82.5C74.857,84.18,79.238,83.941,81.4,82a4.347,4.347,0,0,0,.556-5.539c-.778-1.109-2.366-2.047-6.875-4-5.159-2.222-7.381-3.6-9.412-5.794a13.2,13.2,0,0,1-2.747-5,20.016,20.016,0,0,1-.175-6.381c1.062-5,4.825-8.461,10.254-9.492a25.36,25.36,0,0,1,7.587.222ZM57.111,50.187l.031,4.094H44.127V91.264H34.921V54.281H21.906V50.265l.109-4.125c.047-.062,7.969-.094,17.571-.078l17.476.047Z" transform="translate(0 0.002)" fill="#007acc"/>
</svg>
